<svg width="24" height="24" viewBox="0 0 24 24" fill="none" xmlns="http://www.w3.org/2000/svg">
<path d="M21.5625 9.71997L22.2975 10.14V10.4535L22.0875 11.187L13.182 13.2825L12.345 11.202L21.5625 9.71997Z" fill="#FF7043"/>
<path d="M18.2326 3.55951L19.2571 3.77401L19.5301 4.11001L19.7896 4.91251L19.6816 5.42551L13.7071 13.596L11.7151 11.6055L17.2246 4.37551L18.2326 3.55951Z" fill="#FF7043"/>
<path d="M13.0785 2.28298L13.707 1.86298L14.2305 2.07298L14.754 2.80798L13.3185 11.43L12.3435 10.7685L11.925 9.61498L12.66 3.11998L13.0785 2.28298Z" fill="#FF7043"/>
<path d="M6.3584 2.421L7.0034 1.596L7.4249 1.5L8.2619 1.6215L8.6744 1.9455L11.6804 8.6085L12.7664 11.7735L11.4944 12.48L6.6479 3.684L6.3584 2.421Z" fill="#FF7043"/>
<path d="M3.231 6.99748L3.021 6.15748L3.651 5.42548L4.383 5.53048H4.593L8.9925 8.77798L10.3545 9.82498L12.24 11.292L11.193 13.0725L10.2495 12.339L9.621 11.7105L3.546 7.41598L3.231 6.99748Z" fill="#FF7043"/>
<path d="M1.974 12.444L1.5 11.919V11.454L1.974 11.292L7.317 11.607L12.5535 12.0255L12.384 13.068L2.394 12.549L1.974 12.444Z" fill="#FF7043"/>
<path d="M5.11659 17.8965H4.06959L3.65259 17.4165V16.8435L5.43159 15.5865L12.6616 10.9845L13.3921 12.234L5.11659 17.8965Z" fill="#FF7043"/>
<path d="M7.10706 20.8245L6.68706 20.9295L6.06006 20.6145L6.16506 20.0895L12.3451 11.9205L13.1821 13.0725L8.57406 19.1475L7.10706 20.8245Z" fill="#FF7043"/>
<path d="M12.345 21.8715L12.03 22.2915L11.4015 22.5015L10.878 22.0815L10.563 21.4515L12.135 12.969L13.0785 13.074L12.345 21.8715Z" fill="#FF7043"/>
<path d="M17.6865 19.5675V20.4045L17.5815 20.7195L17.163 20.9295L16.4295 20.8305L11.3955 13.3365L13.392 11.8155L15.0675 14.853L15.225 15.9525L17.6865 19.5675Z" fill="#FF7043"/>
<path d="M20.0969 18.3105L20.2019 18.834L19.8869 19.2525L19.5719 19.1475L17.7914 17.8905L15.0689 15.4815L12.9734 14.0145L13.6019 12.0255L14.6489 12.654L15.2789 13.806L20.0969 18.3105Z" fill="#FF7043"/>
<path d="M18.7349 12.9675L21.3539 13.1775L21.9824 13.5975L22.4009 14.2245V14.6775L21.2489 15.168L15.3824 13.701L12.9734 13.596L13.6019 11.397L15.2774 12.654L18.7349 12.9675Z" fill="#FF7043"/>
</svg>
