<svg width="19" height="24" viewBox="0 0 19 24" fill="none" xmlns="http://www.w3.org/2000/svg">
<g clip-path="url(#clip0_875_487)">
<path d="M5.95093 23.2767C6.94954 23.6802 8.03276 23.9198 9.17024 23.9596C10.6559 24.0129 12.1331 23.7139 13.4822 23.0868C11.9128 22.4677 10.4916 21.5622 9.2786 20.4364C8.49233 21.7007 7.32932 22.6993 5.95093 23.2767Z" fill="#FF9100"/>
<path d="M9.27834 20.4368C6.50946 17.865 4.82974 14.1428 4.97173 10.0603C4.97633 9.92761 4.9833 9.79516 4.99147 9.66271C3.76177 9.34253 2.46945 9.35611 1.24669 9.70207C0.507542 11.0023 0.0614873 12.4942 0.0058975 14.0921C-0.137493 18.2164 2.34772 21.8199 5.95075 23.277C7.32914 22.6996 8.49199 21.7021 9.27834 20.4368Z" fill="#FFC400"/>
<path d="M9.27834 20.4366C9.92211 19.4021 10.3124 18.1891 10.3579 16.8823C10.4773 13.4448 8.17627 10.4877 4.99139 9.66254C4.98323 9.79498 4.97632 9.92751 4.97172 10.0601C4.82974 14.1427 6.50946 17.8649 9.27834 20.4366Z" fill="#FF9100"/>
<path d="M10.0018 0C8.18785 1.45938 6.75558 3.38355 5.889 5.6002C5.38125 6.89957 5.07795 8.27038 4.98999 9.66343C8.17487 10.4885 10.476 13.4457 10.3565 16.8832C10.311 18.1899 9.91953 19.4017 9.27694 20.4375C10.5017 21.5759 11.9273 22.4748 13.4805 23.0879C16.6304 21.6257 18.8653 18.4793 18.9947 14.7577C19.0785 12.3464 18.156 10.1974 16.8524 8.38345C15.4758 6.46494 10.0017 0 10.0017 0" fill="#DD2C00"/>
</g>
<defs>
<clipPath id="clip0_875_487">
<rect width="19" height="24" fill="white"/>
</clipPath>
</defs>
</svg>
