<svg width="24" height="24" viewBox="0 0 24 24" fill="none" xmlns="http://www.w3.org/2000/svg">
<g clip-path="url(#clip0_875_461)">
<path d="M22.0665 18.4203C20.759 18.3845 19.7608 18.5068 18.9067 18.8664C18.6643 18.969 18.2777 18.9712 18.2381 19.2752C18.3714 19.415 18.3918 19.6237 18.4982 19.7958C18.7018 20.1247 19.046 20.567 19.353 20.7993C19.6884 21.0521 20.0342 21.323 20.3938 21.542C21.0339 21.9324 21.7481 22.1552 22.3633 22.5455C22.7267 22.7762 23.0868 23.0662 23.4414 23.3263C23.6165 23.4545 23.7345 23.6544 23.9613 23.735V23.6985C23.8419 23.5462 23.8112 23.3366 23.7013 23.1778L23.2179 22.6944C22.7454 22.0674 22.1456 21.5167 21.5085 21.0596C21.0002 20.6942 19.862 20.2012 19.6503 19.6102L19.613 19.5729C19.9734 19.5318 20.3953 19.4015 20.7285 19.3121C21.2872 19.1627 21.7869 19.2015 22.3633 19.052L23.144 18.8295V18.6808C22.8525 18.3819 22.6445 17.9857 22.3267 17.7148C21.494 17.0058 20.5858 16.2982 19.6505 15.708C19.1319 15.3806 18.491 15.1674 17.9411 14.8899C17.7558 14.7969 17.4313 14.7478 17.309 14.5925C17.0205 14.2248 16.863 13.7583 16.6404 13.3292C16.1739 12.4305 15.716 11.4498 15.3022 10.5043C15.0202 9.85984 14.8365 9.22403 14.4849 8.64616C12.7974 5.87172 10.9811 4.19678 8.1671 2.55091C7.56803 2.20084 6.84729 2.06247 6.08547 1.88153L4.85866 1.80747C4.60891 1.70341 4.3496 1.39797 4.11522 1.24928C3.18316 0.65997 0.791785 -0.62103 0.101035 1.06347C-0.334715 2.12622 0.752973 3.16328 1.14185 3.70235C1.41504 4.0796 1.76435 4.50353 1.95916 4.92841C2.08816 5.20816 2.1101 5.48791 2.21997 5.78322C2.4896 6.51128 2.72529 7.30366 3.07479 7.97603C3.25122 8.31653 3.44603 8.67484 3.66953 8.97953C3.80585 9.16628 4.04078 9.24916 4.07829 9.53697C3.84822 9.85853 3.8351 10.3573 3.70628 10.7638C3.12541 12.5957 3.34516 14.8719 4.18966 16.227C4.44897 16.6438 5.05985 17.5357 5.8991 17.1937C6.63372 16.8941 6.46966 15.9677 6.67985 15.1496C6.72747 14.9643 6.69822 14.828 6.79122 14.7035V14.7408L7.4606 16.0783C7.95579 16.8759 8.83385 17.7093 9.57878 18.2718C9.96485 18.5634 10.2688 19.0672 10.7683 19.2378V19.2005H10.731C10.6342 19.0496 10.4827 18.9873 10.3597 18.8666C10.0689 18.581 9.74529 18.2265 9.50491 17.8998C8.82747 16.9807 8.22897 15.9742 7.6841 14.927C7.42329 14.4268 7.19697 13.8753 6.97722 13.3663C6.89229 13.17 6.89378 12.8726 6.71716 12.7715C6.47697 13.1443 6.12241 13.4462 5.93641 13.8862C5.63978 14.5901 5.60097 15.4492 5.4911 16.3391C5.42585 16.3625 5.45454 16.3464 5.41647 16.3764C4.8986 16.2512 4.7171 15.7187 4.52435 15.261C4.03797 14.1052 3.94722 12.2441 4.37566 10.9127C4.48629 10.5684 4.98729 9.48447 4.78441 9.16591C4.68766 8.84884 4.36835 8.66491 4.18966 8.42247C3.96841 8.12284 3.7481 7.72816 3.59491 7.38166C3.19647 6.48072 3.01122 5.4686 2.59141 4.55753C2.39079 4.12178 2.05235 3.68078 1.7741 3.29416C1.46566 2.86497 1.12085 2.54847 0.881973 2.03003C0.797035 1.84553 0.682098 1.55022 0.807348 1.36141C0.84766 1.23316 0.904098 1.17972 1.03066 1.1381C1.24591 0.971783 1.84666 1.19378 2.07072 1.28678C2.66697 1.53428 3.16422 1.77016 3.66953 2.10484C3.91122 2.26516 4.15666 2.57585 4.44954 2.66228H4.78422C5.30716 2.78247 5.8931 2.69884 6.38229 2.84753C7.24647 3.11041 8.02066 3.51916 8.72379 3.96297C10.8654 5.31578 12.6174 7.24047 13.8155 9.53809C14.0081 9.90803 14.0917 10.2603 14.2616 10.6528C14.6036 11.4438 15.035 12.2576 15.3755 13.0318C15.716 13.803 16.0472 14.5824 16.5283 15.2246C16.781 15.5623 17.7566 15.7432 18.2004 15.9307C18.5117 16.0618 19.0215 16.1988 19.3158 16.3768C19.8783 16.716 20.4232 17.1202 20.9514 17.4915C21.2143 17.6775 22.0258 18.0855 22.0661 18.4209L22.0665 18.4203ZM5.45304 4.26034C5.1806 4.25528 4.98804 4.2896 4.78441 4.33441V4.37172H4.82097C4.95128 4.63834 5.1806 4.81047 5.34166 5.04034L5.71291 5.82109L5.75022 5.78453C5.98029 5.62197 6.08566 5.36266 6.08416 4.96647C5.99191 4.86897 5.97879 4.74822 5.89816 4.63178C5.79279 4.47728 5.58691 4.39009 5.45285 4.26053L5.45304 4.26034Z" fill="#00618A"/>
</g>
<defs>
<clipPath id="clip0_875_461">
<rect width="24" height="24" fill="white"/>
</clipPath>
</defs>
</svg>
