<svg width="24" height="24" viewBox="0 0 24 24" fill="none" xmlns="http://www.w3.org/2000/svg">
<g clip-path="url(#clip0_190_3432)">
<path d="M22.8375 17.4563C21.5812 18.1125 15.075 20.775 13.6875 21.5063C12.3 22.2375 11.5312 22.2188 10.4437 21.6938C9.35624 21.1688 2.43749 18.3938 1.18124 17.7938C0.562494 17.4938 0.243744 17.25 0.243744 17.0063V14.625C0.243744 14.625 9.24374 12.6563 10.7062 12.15C12.1687 11.625 12.6562 11.6063 13.8937 12.0563C15.1312 12.5063 22.5375 13.8375 23.7562 14.2875V16.6313C23.7562 16.875 23.475 17.1375 22.8375 17.4563Z" fill="#A41E11"/>
<path d="M22.8375 15.0937C21.5812 15.7499 15.075 18.4124 13.6875 19.1437C12.3 19.8749 11.5312 19.8562 10.4437 19.3312C9.35624 18.8062 2.43749 16.0124 1.18124 15.4124C-0.0562563 14.8124 -0.0937564 14.3999 1.12499 13.9312C2.34374 13.4437 9.22499 10.7437 10.6875 10.2374C12.15 9.71245 12.6375 9.6937 13.875 10.1437C15.1125 10.5937 21.5812 13.1624 22.8 13.6124C24.0562 14.0624 24.0937 14.4374 22.8375 15.0937Z" fill="#D82C20"/>
<path d="M22.8375 13.5937C21.5812 14.2499 15.075 16.9124 13.6875 17.6437C12.3 18.3562 11.5312 18.3562 10.4437 17.8312C9.35624 17.3062 2.43749 14.5124 1.18124 13.9124C0.562494 13.6124 0.243744 13.3687 0.243744 13.1249V10.7437C0.243744 10.7437 9.24374 8.77495 10.7062 8.2687C12.1687 7.7437 12.6562 7.72495 13.8937 8.17495C15.1312 8.62495 22.5375 9.9562 23.7562 10.4062V12.7499C23.7562 12.9937 23.475 13.2562 22.8375 13.5937Z" fill="#A41E11"/>
<path d="M22.8375 11.2126C21.5813 11.8688 15.075 14.5313 13.6875 15.2626C12.3 15.9751 11.5313 15.9751 10.4438 15.4501C9.35626 14.9251 2.43751 12.1313 1.18126 11.5313C-0.0749944 10.9313 -0.0937445 10.5188 1.12501 10.0501C2.34376 9.56259 9.22501 6.86259 10.6875 6.35634C12.15 5.83134 12.6375 5.81259 13.875 6.26259C15.1125 6.71259 21.5813 9.28134 22.8 9.73134C24.0563 10.1813 24.0938 10.5563 22.8375 11.2126Z" fill="#D82C20"/>
<path d="M22.8375 9.5625C21.5813 10.2187 15.075 12.8812 13.6875 13.6125C12.3 14.325 11.5313 14.325 10.4438 13.8C9.35626 13.2937 2.43751 10.5 1.18126 9.9C0.562506 9.6 0.225006 9.35625 0.225006 9.1125V6.73125C0.225006 6.73125 9.22501 4.7625 10.6875 4.25625C12.15 3.73125 12.6375 3.7125 13.875 4.1625C15.1125 4.6125 22.5188 5.94375 23.7375 6.39375V8.7375C23.7563 8.98125 23.475 9.225 22.8375 9.5625Z" fill="#A41E11"/>
<path d="M22.8375 7.18115C21.5813 7.8374 15.075 10.4999 13.6875 11.2311C12.3 11.9436 11.5313 11.9436 10.4438 11.4186C9.35626 10.8936 2.43751 8.11865 1.18126 7.51865C-0.0749944 6.91865 -0.0937445 6.50615 1.12501 6.0374C2.34376 5.5499 9.22501 2.8499 10.6875 2.34365C12.15 1.81865 12.6375 1.7999 13.875 2.2499C15.1125 2.6999 21.5813 5.26865 22.8 5.71865C24.0563 6.16865 24.0938 6.54365 22.8375 7.18115Z" fill="#D82C20"/>
<path d="M15.075 4.8937L13.05 5.1187L12.5813 6.2062L11.85 4.98745L9.50626 4.7812L11.25 4.1437L10.725 3.1687L12.375 3.8062L13.9125 3.29995L13.5 4.31245L15.075 4.8937ZM12.4688 10.2187L8.66251 8.6437L14.1188 7.8187L12.4688 10.2187Z" fill="white"/>
<path d="M7.20001 7.76245C8.80509 7.76245 10.1063 7.25877 10.1063 6.63745C10.1063 6.01613 8.80509 5.51245 7.20001 5.51245C5.59494 5.51245 4.29376 6.01613 4.29376 6.63745C4.29376 7.25877 5.59494 7.76245 7.20001 7.76245Z" fill="white"/>
<path d="M17.4937 5.19385L20.7187 6.46885L17.4937 7.74385V5.19385Z" fill="#7A0C00"/>
<path d="M13.9312 6.61885L17.4937 5.19385V7.74385L17.1375 7.89385L13.9312 6.61885Z" fill="#AD2115"/>
</g>
<defs>
<clipPath id="clip0_190_3432">
<rect width="24" height="24" fill="white"/>
</clipPath>
</defs>
</svg>
