<svg width="48" height="45" viewBox="0 0 48 45" fill="none" xmlns="http://www.w3.org/2000/svg">
<path d="M0 22.8005C0 19.1941 2.92355 16.2706 6.52993 16.2706H29.7422C30.5786 16.2706 31.2566 16.9486 31.2566 17.785V17.785C31.2566 23.3334 26.7587 27.8312 21.2103 27.8312H0V22.8005Z" fill="#E4E4E4"/>
<path d="M0 11.9067C0 5.33082 5.3308 0 11.9067 0V0C12.8979 0 13.7015 0.803582 13.7015 1.79485V32.6233C13.7015 39.1991 8.37073 44.53 1.79485 44.53V44.53C0.803582 44.53 0 43.7264 0 42.7351V11.9067Z" fill="#E4E4E4"/>
<path d="M33.8252 11.5346C33.8252 5.16422 38.9894 0 45.3598 0V0C46.3201 0 47.0985 0.778469 47.0985 1.73876V28.6876H33.8252V11.5346Z" fill="#E4E4E4"/>
<path d="M17.9834 41.9609C17.9834 34.6302 23.9261 28.6876 31.2568 28.6876V28.6876V44.53H20.0587C18.9125 44.53 17.9834 43.6008 17.9834 42.4547V41.9609Z" fill="#E4E4E4"/>
<path d="M31.2568 44.5299L31.2568 28.6875L47.0992 28.6875V28.6875C47.0992 37.437 40.0063 44.5299 31.2568 44.5299V44.5299Z" fill="#E4E4E4"/>
<path d="M0 6.52993C0 2.92355 2.92355 0 6.52993 0H29.7422C30.5786 0 31.2566 0.678022 31.2566 1.5144V1.5144C31.2566 7.0628 26.7587 11.5607 21.2103 11.5607H0V6.52993Z" fill="#E4E4E4"/>
</svg>
