<svg width="24" height="24" viewBox="0 0 24 24" fill="none" xmlns="http://www.w3.org/2000/svg">
<path d="M7.22 14.47L9.69 12L7.22 9.53003C7.12127 9.43835 7.0491 9.32175 7.01109 9.1925C6.97307 9.06325 6.97062 8.92615 7.004 8.79562C7.03737 8.6651 7.10533 8.54599 7.20072 8.45085C7.2961 8.35571 7.41539 8.28806 7.546 8.25503C7.67638 8.22172 7.81332 8.2241 7.94246 8.26193C8.07161 8.29976 8.18819 8.37164 8.28 8.47003L11.28 11.47C11.4204 11.6107 11.4993 11.8013 11.4993 12C11.4993 12.1988 11.4204 12.3894 11.28 12.53L8.28 15.53C8.13785 15.6627 7.94975 15.7349 7.75536 15.7316C7.56097 15.7282 7.37548 15.6495 7.238 15.512C7.10052 15.3745 7.02181 15.1891 7.01845 14.9947C7.01509 14.8003 7.08735 14.6122 7.22 14.47Z" fill="#E4E4E4"/>
<path d="M3.75 2H20.25C21.216 2 22 2.784 22 3.75V20.25C22 20.7141 21.8156 21.1592 21.4874 21.4874C21.1592 21.8156 20.7141 22 20.25 22H3.75C3.28587 22 2.84075 21.8156 2.51256 21.4874C2.18437 21.1592 2 20.7141 2 20.25V3.75C2 2.784 2.784 2 3.75 2ZM3.5 3.75V20.25C3.5 20.388 3.612 20.5 3.75 20.5H15V3.5H3.75C3.6837 3.5 3.62011 3.52634 3.57322 3.57322C3.52634 3.62011 3.5 3.6837 3.5 3.75ZM16.5 20.5H20.25C20.3163 20.5 20.3799 20.4737 20.4268 20.4268C20.4737 20.3799 20.5 20.3163 20.5 20.25V3.75C20.5 3.6837 20.4737 3.62011 20.4268 3.57322C20.3799 3.52634 20.3163 3.5 20.25 3.5H16.5V20.5Z" fill="#E4E4E4"/>
</svg>
